<svg xmlns="http://www.w3.org/2000/svg" height="200" width="200">
<rect x="5" y="5" width="30" height="30" rx="5" fill="#000" fill-opacity="0.2"/>
<rect x="45" y="5" width="30" height="30" rx="5" fill="#000" fill-opacity="0.2"/>
<rect x="85" y="5" width="30" height="30" rx="5" fill="#fff" fill-opacity="1.0"/>
<rect x="125" y="5" width="30" height="30" rx="5" fill="#000" fill-opacity="0.2"/>
<rect x="165" y="5" width="30" height="30" rx="5" fill="#000" fill-opacity="0.2"/>
<rect x="5" y="45" width="30" height="30" rx="5" fill="#000" fill-opacity="0.2"/>
<rect x="45" y="45" width="30" height="30" rx="5" fill="#fff" fill-opacity="1.0"/>
<rect x="85" y="45" width="30" height="30" rx="5" fill="#fff" fill-opacity="1.0"/>
<rect x="125" y="45" width="30" height="30" rx="5" fill="#fff" fill-opacity="1.0"/>
<rect x="165" y="45" width="30" height="30" rx="5" fill="#000" fill-opacity="0.2"/>
<rect x="5" y="85" width="30" height="30" rx="5" fill="#fff" fill-opacity="1.0"/>
<rect x="45" y="85" width="30" height="30" rx="5" fill="#fff" fill-opacity="1.0"/>
<rect x="85" y="85" width="30" height="30" rx="5" fill="#fff" fill-opacity="1.0"/>
<rect x="125" y="85" width="30" height="30" rx="5" fill="#fff" fill-opacity="1.0"/>
<rect x="165" y="85" width="30" height="30" rx="5" fill="#fff" fill-opacity="1.0"/>
<rect x="5" y="125" width="30" height="30" rx="5" fill="#fff" fill-opacity="1.0"/>
<rect x="45" y="125" width="30" height="30" rx="5" fill="#000" fill-opacity="0.2"/>
<rect x="85" y="125" width="30" height="30" rx="5" fill="#fff" fill-opacity="1.0"/>
<rect x="125" y="125" width="30" height="30" rx="5" fill="#000" fill-opacity="0.2"/>
<rect x="165" y="125" width="30" height="30" rx="5" fill="#fff" fill-opacity="1.0"/>
<rect x="5" y="165" width="30" height="30" rx="5" fill="#fff" fill-opacity="1.0"/>
<rect x="45" y="165" width="30" height="30" rx="5" fill="#fff" fill-opacity="1.0"/>
<rect x="85" y="165" width="30" height="30" rx="5" fill="#fff" fill-opacity="1.0"/>
<rect x="125" y="165" width="30" height="30" rx="5" fill="#000" fill-opacity="0.2"/>
<rect x="165" y="165" width="30" height="30" rx="5" fill="#fff" fill-opacity="1.0"/>
</svg>